<mxfile host="app.diagrams.net" modified="2024-06-23T17:11:57.762Z" agent="Mozilla/5.0 (Windows NT 10.0; Win64; x64) AppleWebKit/537.36 (KHTML, like Gecko) Chrome/126.0.0.0 Safari/537.36" etag="CaCUGi-8clgmmHgkp83e" version="24.6.2" type="device">
  <diagram name="Page-1" id="Mi3Lm3dY8ZBw06NJDvWg">
    <mxGraphModel dx="1259" dy="662" grid="1" gridSize="10" guides="1" tooltips="1" connect="1" arrows="1" fold="1" page="1" pageScale="1" pageWidth="850" pageHeight="1100" math="0" shadow="0">
      <root>
        <mxCell id="0" />
        <mxCell id="1" parent="0" />
        <mxCell id="ZaTgD6MMcQvt1EQLGWRR-1" value="" style="rounded=0;whiteSpace=wrap;html=1;" parent="1" vertex="1">
          <mxGeometry x="120" y="80" width="520" height="440" as="geometry" />
        </mxCell>
        <mxCell id="ZaTgD6MMcQvt1EQLGWRR-2" value="&lt;font style=&quot;font-size: 20px;&quot;&gt;&lt;b&gt;Login Page&lt;/b&gt;&lt;/font&gt;" style="text;html=1;align=center;verticalAlign=middle;resizable=0;points=[];autosize=1;strokeColor=none;fillColor=none;" parent="1" vertex="1">
          <mxGeometry x="315" y="30" width="130" height="40" as="geometry" />
        </mxCell>
        <mxCell id="ZaTgD6MMcQvt1EQLGWRR-19" value="" style="rounded=0;whiteSpace=wrap;html=1;" parent="1" vertex="1">
          <mxGeometry x="680" y="80" width="520" height="440" as="geometry" />
        </mxCell>
        <mxCell id="ZaTgD6MMcQvt1EQLGWRR-20" value="&lt;font style=&quot;font-size: 20px;&quot;&gt;&lt;b&gt;Side Panel On Home Page&lt;/b&gt;&lt;/font&gt;" style="text;html=1;align=center;verticalAlign=middle;resizable=0;points=[];autosize=1;strokeColor=none;fillColor=none;" parent="1" vertex="1">
          <mxGeometry x="805" y="30" width="270" height="40" as="geometry" />
        </mxCell>
        <mxCell id="ZaTgD6MMcQvt1EQLGWRR-21" value="" style="rounded=1;whiteSpace=wrap;html=1;" parent="1" vertex="1">
          <mxGeometry x="840" y="140" width="200" height="300" as="geometry" />
        </mxCell>
        <mxCell id="ZaTgD6MMcQvt1EQLGWRR-22" value="" style="ellipse;whiteSpace=wrap;html=1;aspect=fixed;" parent="1" vertex="1">
          <mxGeometry x="840" y="450" width="40" height="40" as="geometry" />
        </mxCell>
        <mxCell id="ZaTgD6MMcQvt1EQLGWRR-23" value="" style="ellipse;whiteSpace=wrap;html=1;aspect=fixed;" parent="1" vertex="1">
          <mxGeometry x="1000" y="450" width="40" height="40" as="geometry" />
        </mxCell>
        <mxCell id="ZaTgD6MMcQvt1EQLGWRR-24" value="" style="verticalLabelPosition=bottom;verticalAlign=top;html=1;shape=mxgraph.basic.heart" parent="1" vertex="1">
          <mxGeometry x="1003.75" y="455" width="32.5" height="30" as="geometry" />
        </mxCell>
        <mxCell id="ZaTgD6MMcQvt1EQLGWRR-25" value="" style="verticalLabelPosition=bottom;verticalAlign=top;html=1;shape=mxgraph.basic.x" parent="1" vertex="1">
          <mxGeometry x="845" y="455" width="30" height="30" as="geometry" />
        </mxCell>
        <mxCell id="ZaTgD6MMcQvt1EQLGWRR-26" value="" style="shape=actor;whiteSpace=wrap;html=1;" parent="1" vertex="1">
          <mxGeometry x="860" y="170" width="160" height="270" as="geometry" />
        </mxCell>
        <mxCell id="ZaTgD6MMcQvt1EQLGWRR-27" value="&lt;font style=&quot;font-size: 16px;&quot;&gt;Log out&lt;/font&gt;" style="text;html=1;align=center;verticalAlign=middle;resizable=0;points=[];autosize=1;strokeColor=none;fillColor=none;" parent="1" vertex="1">
          <mxGeometry x="1120" y="80" width="80" height="30" as="geometry" />
        </mxCell>
        <mxCell id="ZaTgD6MMcQvt1EQLGWRR-28" value="" style="shape=partialRectangle;whiteSpace=wrap;html=1;top=0;bottom=0;fillColor=none;direction=south;strokeWidth=4;" parent="1" vertex="1">
          <mxGeometry x="690" y="100" width="40" height="10" as="geometry" />
        </mxCell>
        <mxCell id="ZaTgD6MMcQvt1EQLGWRR-29" value="" style="shape=partialRectangle;whiteSpace=wrap;html=1;top=0;bottom=0;fillColor=none;direction=south;strokeWidth=4;" parent="1" vertex="1">
          <mxGeometry x="690" y="90" width="40" height="20" as="geometry" />
        </mxCell>
        <mxCell id="ZaTgD6MMcQvt1EQLGWRR-31" value="" style="verticalLabelPosition=bottom;verticalAlign=top;html=1;shape=mxgraph.basic.rect;fillColor2=none;strokeWidth=1;size=20;indent=5;" parent="1" vertex="1">
          <mxGeometry x="680" y="80" width="150" height="440" as="geometry" />
        </mxCell>
        <mxCell id="ZaTgD6MMcQvt1EQLGWRR-34" value="&lt;font style=&quot;font-size: 22px;&quot;&gt;Profile&lt;/font&gt;" style="rounded=0;whiteSpace=wrap;html=1;" parent="1" vertex="1">
          <mxGeometry x="680" y="140" width="150" height="60" as="geometry" />
        </mxCell>
        <mxCell id="ZaTgD6MMcQvt1EQLGWRR-35" value="&lt;span style=&quot;font-size: 22px;&quot;&gt;Matches&lt;/span&gt;" style="rounded=0;whiteSpace=wrap;html=1;" parent="1" vertex="1">
          <mxGeometry x="680" y="200" width="150" height="60" as="geometry" />
        </mxCell>
        <mxCell id="ZaTgD6MMcQvt1EQLGWRR-36" value="&lt;font style=&quot;font-size: 22px;&quot;&gt;Messages&lt;/font&gt;" style="rounded=0;whiteSpace=wrap;html=1;" parent="1" vertex="1">
          <mxGeometry x="680" y="260" width="150" height="60" as="geometry" />
        </mxCell>
        <mxCell id="ZaTgD6MMcQvt1EQLGWRR-37" value="&lt;font style=&quot;font-size: 22px;&quot;&gt;Hi name&lt;/font&gt;" style="rounded=0;whiteSpace=wrap;html=1;" parent="1" vertex="1">
          <mxGeometry x="680" y="80" width="150" height="60" as="geometry" />
        </mxCell>
        <mxCell id="ZaTgD6MMcQvt1EQLGWRR-38" value="" style="rounded=0;whiteSpace=wrap;html=1;" parent="1" vertex="1">
          <mxGeometry x="120" y="600" width="520" height="440" as="geometry" />
        </mxCell>
        <mxCell id="ZaTgD6MMcQvt1EQLGWRR-39" value="&lt;font style=&quot;font-size: 20px;&quot;&gt;&lt;b&gt;Home Page&lt;/b&gt;&lt;/font&gt;" style="text;html=1;align=center;verticalAlign=middle;resizable=0;points=[];autosize=1;strokeColor=none;fillColor=none;" parent="1" vertex="1">
          <mxGeometry x="315" y="550" width="130" height="40" as="geometry" />
        </mxCell>
        <mxCell id="ZaTgD6MMcQvt1EQLGWRR-41" value="" style="ellipse;whiteSpace=wrap;html=1;aspect=fixed;" parent="1" vertex="1">
          <mxGeometry x="280" y="970" width="40" height="40" as="geometry" />
        </mxCell>
        <mxCell id="ZaTgD6MMcQvt1EQLGWRR-42" value="" style="ellipse;whiteSpace=wrap;html=1;aspect=fixed;" parent="1" vertex="1">
          <mxGeometry x="440" y="970" width="40" height="40" as="geometry" />
        </mxCell>
        <mxCell id="ZaTgD6MMcQvt1EQLGWRR-43" value="" style="verticalLabelPosition=bottom;verticalAlign=top;html=1;shape=mxgraph.basic.heart" parent="1" vertex="1">
          <mxGeometry x="443.75" y="975" width="32.5" height="30" as="geometry" />
        </mxCell>
        <mxCell id="ZaTgD6MMcQvt1EQLGWRR-44" value="" style="verticalLabelPosition=bottom;verticalAlign=top;html=1;shape=mxgraph.basic.x" parent="1" vertex="1">
          <mxGeometry x="285" y="975" width="30" height="30" as="geometry" />
        </mxCell>
        <mxCell id="ZaTgD6MMcQvt1EQLGWRR-46" value="&lt;font style=&quot;font-size: 16px;&quot;&gt;Log out&lt;/font&gt;" style="text;html=1;align=center;verticalAlign=middle;resizable=0;points=[];autosize=1;strokeColor=none;fillColor=none;" parent="1" vertex="1">
          <mxGeometry x="560" y="600" width="80" height="30" as="geometry" />
        </mxCell>
        <mxCell id="ZaTgD6MMcQvt1EQLGWRR-47" value="" style="shape=partialRectangle;whiteSpace=wrap;html=1;top=0;bottom=0;fillColor=none;direction=south;strokeWidth=4;" parent="1" vertex="1">
          <mxGeometry x="130" y="620" width="40" height="10" as="geometry" />
        </mxCell>
        <mxCell id="ZaTgD6MMcQvt1EQLGWRR-48" value="" style="shape=partialRectangle;whiteSpace=wrap;html=1;top=0;bottom=0;fillColor=none;direction=south;strokeWidth=4;" parent="1" vertex="1">
          <mxGeometry x="130" y="610" width="40" height="20" as="geometry" />
        </mxCell>
        <mxCell id="ZaTgD6MMcQvt1EQLGWRR-50" value="&lt;font style=&quot;font-size: 20px;&quot;&gt;&lt;b&gt;Matches Page&lt;/b&gt;&lt;/font&gt;" style="text;html=1;align=center;verticalAlign=middle;resizable=0;points=[];autosize=1;strokeColor=none;fillColor=none;" parent="1" vertex="1">
          <mxGeometry x="860" y="550" width="160" height="40" as="geometry" />
        </mxCell>
        <mxCell id="ZaTgD6MMcQvt1EQLGWRR-49" value="" style="rounded=0;whiteSpace=wrap;html=1;" parent="1" vertex="1">
          <mxGeometry x="680" y="600" width="520" height="440" as="geometry" />
        </mxCell>
        <mxCell id="ZaTgD6MMcQvt1EQLGWRR-57" value="&lt;font style=&quot;font-size: 16px;&quot;&gt;Log out&lt;/font&gt;" style="text;html=1;align=center;verticalAlign=middle;resizable=0;points=[];autosize=1;strokeColor=none;fillColor=none;" parent="1" vertex="1">
          <mxGeometry x="1120" y="600" width="80" height="30" as="geometry" />
        </mxCell>
        <mxCell id="ZaTgD6MMcQvt1EQLGWRR-58" value="" style="shape=partialRectangle;whiteSpace=wrap;html=1;top=0;bottom=0;fillColor=none;direction=south;strokeWidth=4;" parent="1" vertex="1">
          <mxGeometry x="690" y="620" width="40" height="10" as="geometry" />
        </mxCell>
        <mxCell id="ZaTgD6MMcQvt1EQLGWRR-59" value="" style="shape=partialRectangle;whiteSpace=wrap;html=1;top=0;bottom=0;fillColor=none;direction=south;strokeWidth=4;" parent="1" vertex="1">
          <mxGeometry x="690" y="610" width="40" height="20" as="geometry" />
        </mxCell>
        <mxCell id="8h1q0feU8XcjB2wI1VCS-1" value="" style="rounded=1;whiteSpace=wrap;html=1;" vertex="1" parent="1">
          <mxGeometry x="252.5" y="140" width="255" height="290" as="geometry" />
        </mxCell>
        <mxCell id="8h1q0feU8XcjB2wI1VCS-2" value="&lt;font style=&quot;font-size: 21px;&quot;&gt;Sign in&lt;/font&gt;" style="text;html=1;align=center;verticalAlign=middle;resizable=0;points=[];autosize=1;strokeColor=none;fillColor=none;" vertex="1" parent="1">
          <mxGeometry x="285" y="160" width="90" height="40" as="geometry" />
        </mxCell>
        <mxCell id="8h1q0feU8XcjB2wI1VCS-5" value="Forgot Password?" style="text;html=1;align=center;verticalAlign=middle;resizable=0;points=[];autosize=1;strokeColor=none;fillColor=none;" vertex="1" parent="1">
          <mxGeometry x="280" y="250" width="120" height="30" as="geometry" />
        </mxCell>
        <mxCell id="8h1q0feU8XcjB2wI1VCS-8" value="Sign in" style="rounded=1;whiteSpace=wrap;html=1;" vertex="1" parent="1">
          <mxGeometry x="290" y="280" width="180" height="30" as="geometry" />
        </mxCell>
        <mxCell id="8h1q0feU8XcjB2wI1VCS-9" value="Password" style="rounded=1;whiteSpace=wrap;html=1;align=left;" vertex="1" parent="1">
          <mxGeometry x="290" y="230" width="180" height="20" as="geometry" />
        </mxCell>
        <mxCell id="8h1q0feU8XcjB2wI1VCS-10" value="Username" style="rounded=1;whiteSpace=wrap;html=1;align=left;" vertex="1" parent="1">
          <mxGeometry x="290" y="200" width="180" height="20" as="geometry" />
        </mxCell>
        <mxCell id="8h1q0feU8XcjB2wI1VCS-11" value="" style="endArrow=none;html=1;rounded=0;" edge="1" parent="1">
          <mxGeometry width="50" height="50" relative="1" as="geometry">
            <mxPoint x="290" y="330" as="sourcePoint" />
            <mxPoint x="470" y="330" as="targetPoint" />
          </mxGeometry>
        </mxCell>
        <mxCell id="8h1q0feU8XcjB2wI1VCS-14" value="Or" style="edgeLabel;html=1;align=center;verticalAlign=middle;resizable=0;points=[];" vertex="1" connectable="0" parent="8h1q0feU8XcjB2wI1VCS-11">
          <mxGeometry x="-0.0635" y="2" relative="1" as="geometry">
            <mxPoint as="offset" />
          </mxGeometry>
        </mxCell>
        <mxCell id="8h1q0feU8XcjB2wI1VCS-16" value="Sign in Google" style="rounded=1;whiteSpace=wrap;html=1;" vertex="1" parent="1">
          <mxGeometry x="290" y="350" width="180" height="30" as="geometry" />
        </mxCell>
        <mxCell id="8h1q0feU8XcjB2wI1VCS-17" value="&lt;font style=&quot;font-size: 18px;&quot;&gt;&lt;b&gt;Christian Crush&lt;/b&gt;&lt;/font&gt;" style="text;html=1;align=center;verticalAlign=middle;resizable=0;points=[];autosize=1;strokeColor=none;fillColor=none;" vertex="1" parent="1">
          <mxGeometry x="130" y="90" width="160" height="40" as="geometry" />
        </mxCell>
        <mxCell id="8h1q0feU8XcjB2wI1VCS-18" value="&lt;font style=&quot;font-size: 20px;&quot;&gt;&lt;b&gt;Matches&lt;/b&gt;&lt;/font&gt;" style="text;html=1;align=center;verticalAlign=middle;resizable=0;points=[];autosize=1;strokeColor=none;fillColor=none;" vertex="1" parent="1">
          <mxGeometry x="890" y="610" width="100" height="40" as="geometry" />
        </mxCell>
        <mxCell id="8h1q0feU8XcjB2wI1VCS-54" value="" style="rounded=0;whiteSpace=wrap;html=1;" vertex="1" parent="1">
          <mxGeometry x="750" y="650" width="385" height="370" as="geometry" />
        </mxCell>
        <mxCell id="8h1q0feU8XcjB2wI1VCS-20" value="" style="group" vertex="1" connectable="0" parent="1">
          <mxGeometry x="800" y="680" width="340" height="340" as="geometry" />
        </mxCell>
        <mxCell id="ZaTgD6MMcQvt1EQLGWRR-40" value="" style="rounded=1;whiteSpace=wrap;html=1;" parent="8h1q0feU8XcjB2wI1VCS-20" vertex="1">
          <mxGeometry width="130" height="140" as="geometry" />
        </mxCell>
        <mxCell id="ZaTgD6MMcQvt1EQLGWRR-45" value="" style="shape=actor;whiteSpace=wrap;html=1;" parent="8h1q0feU8XcjB2wI1VCS-20" vertex="1">
          <mxGeometry x="13" y="14" width="104" height="126" as="geometry" />
        </mxCell>
        <mxCell id="8h1q0feU8XcjB2wI1VCS-38" value="" style="group" vertex="1" connectable="0" parent="1">
          <mxGeometry x="960" y="680" width="130" height="140" as="geometry" />
        </mxCell>
        <mxCell id="8h1q0feU8XcjB2wI1VCS-39" value="" style="rounded=1;whiteSpace=wrap;html=1;" vertex="1" parent="8h1q0feU8XcjB2wI1VCS-38">
          <mxGeometry width="130" height="140" as="geometry" />
        </mxCell>
        <mxCell id="8h1q0feU8XcjB2wI1VCS-40" value="" style="shape=actor;whiteSpace=wrap;html=1;" vertex="1" parent="8h1q0feU8XcjB2wI1VCS-38">
          <mxGeometry x="13" y="14" width="104" height="126" as="geometry" />
        </mxCell>
        <mxCell id="8h1q0feU8XcjB2wI1VCS-41" value="" style="group" vertex="1" connectable="0" parent="1">
          <mxGeometry x="800" y="850" width="365" height="180" as="geometry" />
        </mxCell>
        <mxCell id="8h1q0feU8XcjB2wI1VCS-42" value="" style="rounded=1;whiteSpace=wrap;html=1;" vertex="1" parent="8h1q0feU8XcjB2wI1VCS-41">
          <mxGeometry width="130" height="140" as="geometry" />
        </mxCell>
        <mxCell id="8h1q0feU8XcjB2wI1VCS-43" value="" style="shape=actor;whiteSpace=wrap;html=1;" vertex="1" parent="8h1q0feU8XcjB2wI1VCS-41">
          <mxGeometry x="13" y="14" width="104" height="126" as="geometry" />
        </mxCell>
        <mxCell id="8h1q0feU8XcjB2wI1VCS-44" value="" style="group" vertex="1" connectable="0" parent="1">
          <mxGeometry x="960" y="850" width="130" height="140" as="geometry" />
        </mxCell>
        <mxCell id="8h1q0feU8XcjB2wI1VCS-45" value="" style="rounded=1;whiteSpace=wrap;html=1;" vertex="1" parent="8h1q0feU8XcjB2wI1VCS-44">
          <mxGeometry width="130" height="140" as="geometry" />
        </mxCell>
        <mxCell id="8h1q0feU8XcjB2wI1VCS-46" value="" style="shape=actor;whiteSpace=wrap;html=1;" vertex="1" parent="8h1q0feU8XcjB2wI1VCS-44">
          <mxGeometry x="13" y="14" width="104" height="126" as="geometry" />
        </mxCell>
        <mxCell id="8h1q0feU8XcjB2wI1VCS-47" value="Name" style="text;html=1;align=center;verticalAlign=middle;resizable=0;points=[];autosize=1;strokeColor=none;fillColor=none;" vertex="1" parent="1">
          <mxGeometry x="835" y="820" width="60" height="30" as="geometry" />
        </mxCell>
        <mxCell id="8h1q0feU8XcjB2wI1VCS-49" value="Name" style="text;html=1;align=center;verticalAlign=middle;resizable=0;points=[];autosize=1;strokeColor=none;fillColor=none;" vertex="1" parent="1">
          <mxGeometry x="995" y="990" width="60" height="30" as="geometry" />
        </mxCell>
        <mxCell id="8h1q0feU8XcjB2wI1VCS-48" value="Name" style="text;html=1;align=center;verticalAlign=middle;resizable=0;points=[];autosize=1;strokeColor=none;fillColor=none;" vertex="1" parent="1">
          <mxGeometry x="995" y="820" width="60" height="30" as="geometry" />
        </mxCell>
        <mxCell id="8h1q0feU8XcjB2wI1VCS-50" value="Name" style="text;html=1;align=center;verticalAlign=middle;resizable=0;points=[];autosize=1;strokeColor=none;fillColor=none;" vertex="1" parent="1">
          <mxGeometry x="835" y="990" width="60" height="30" as="geometry" />
        </mxCell>
        <mxCell id="8h1q0feU8XcjB2wI1VCS-55" value="" style="rounded=0;whiteSpace=wrap;html=1;" vertex="1" parent="1">
          <mxGeometry x="1120" y="650" width="15" height="370" as="geometry" />
        </mxCell>
        <mxCell id="8h1q0feU8XcjB2wI1VCS-58" value="" style="rounded=0;whiteSpace=wrap;html=1;fillColor=#000000;" vertex="1" parent="1">
          <mxGeometry x="1120" y="650" width="15" height="50" as="geometry" />
        </mxCell>
        <mxCell id="8h1q0feU8XcjB2wI1VCS-59" value="" style="group" vertex="1" connectable="0" parent="1">
          <mxGeometry x="260" y="660" width="240" height="300" as="geometry" />
        </mxCell>
        <mxCell id="8h1q0feU8XcjB2wI1VCS-60" value="" style="rounded=1;whiteSpace=wrap;html=1;" vertex="1" parent="8h1q0feU8XcjB2wI1VCS-59">
          <mxGeometry width="240" height="300" as="geometry" />
        </mxCell>
        <mxCell id="8h1q0feU8XcjB2wI1VCS-61" value="" style="shape=actor;whiteSpace=wrap;html=1;" vertex="1" parent="8h1q0feU8XcjB2wI1VCS-59">
          <mxGeometry x="24" y="30" width="192" height="270" as="geometry" />
        </mxCell>
      </root>
    </mxGraphModel>
  </diagram>
</mxfile>
